<?xml version="1.0" standalone="no"?><!DOCTYPE svg PUBLIC "-//W3C//DTD SVG 1.1//EN" "http://www.w3.org/Graphics/SVG/1.1/DTD/svg11.dtd" ><svg xmlns="http://www.w3.org/2000/svg"><metadata></metadata><defs><font id="FontEditor 1.0 : fonteditor" horiz-adv-x="1200"><font-face font-family="fonteditor" font-weight="400" font-stretch="normal" units-per-em="1024" panose-1="2 0 6 3 0 0 0 0 0 0" ascent="812" descent="-212" x-height="0" bbox="11 -236 1188 874" underline-thickness="0" underline-position="50" unicode-range="U+0000-2193" /><missing-glyph horiz-adv-x="1184" d="M539 351 q5 -13 6 -26 q1 -12 -3 -18 l-138 -173 q-5 -5 -14 0 q-9 5 -15 17 l-28 62 l-75 168 q-6 13 -7 25 q0 12 4 19 l21 27 q4 6 11 1 q7 -4 13 -17 l65 -145 l109 136 q4 6 11 1 q7 -5 13 -17 l27 -60 Z" /><glyph glyph-name="f" unicode="f" d="M847 -118 q36 34 8 76 l-132 151 q91 92 94 228 q-4 141 -97 234 q-93 93 -233 96 q-141 -3 -234 -96 q-94 -93 -96 -234 q2 -140 96 -233 q93 -93 234 -97 q80 0 151 37 l133 -155 q33 -36 76 -7 ZM740 338 q-3 -107 -74 -178 q-71 -70 -178 -73 q-105 3 -177 73 q-71 72 -75 178 q4 108 75 178 q72 71 177 74 q107 -3 178 -74 q71 -70 74 -178 Z" /><glyph glyph-name="x" unicode="x" d="M912 600 l-300 -300 l300 -300 l-93 -92 l-297 301 l-300 -301 l-92 92 l300 300 l-300 300 l92 92 l300 -301 l297 301 l93 -92 Z" /><glyph glyph-name="D" unicode="d" d="M901 125 l74 0 l0 -260 l-905 0 l0 260 l74 0 l35 -149 l685 0 l37 149 ZM179 457 l341 -367 l344 367 l-203 0 l0 112 l-277 0 l0 -112 l-205 0 ZM384 735 l0 -92 l277 0 l0 92 l-277 0 Z" /><glyph glyph-name="d" unicode="d" d="M899 128 l72 0 l0 -256 l-894 0 l0 256 l74 0 l34 -146 l677 0 l37 146 ZM862 363 l-337 365 l-340 -365 l201 0 l0 -108 l273 0 l0 108 l203 0 ZM659 91 l0 89 l-273 0 l0 -89 l273 0 Z" /><glyph glyph-name="e" unicode="e" d="M85 -136 l285 88 l-198 199 l-87 -287 ZM100 -153 l125 48 l-105 106 l-52 -125 q-4 -14 5 -24 q8 -8 19 -7 q2 0 8 2 ZM301 23 l395 394 l-68 67 l-403 -395 l21 -60 l55 -6 ZM392 -76 l401 396 l-55 53 l-399 -398 l53 -51 ZM193 125 l398 399 l-48 46 l-399 -396 l49 -49 ZM826 359 l59 54 l-249 248 l-56 -52 l246 -250 ZM951 494 q25 27 24.5 60 q-0.5 33 -27.5 57 l-118 119 q-25 25 -59 25 q-34 0 -58 -25 l-37 -35 l240 -238 l35 37 Z" /><glyph glyph-name="v" unicode="v" d="M521 67 l385 382 l-85 84 l-300 -306 l-301 306 l-83 -84 l384 -382 Z" /><glyph glyph-name="asciicircum" unicode="^" d="M137 151 l83 -84 l301 306 l300 -306 l85 84 l-385 382 l-384 -382 Z" /><glyph glyph-name="less" unicode="&lt;" d="M289 301 l382 -385 l84 85 l-306 300 l306 301 l-85 83 l-381 -384 Z" /><glyph glyph-name="greater" unicode="&gt;" d="M755 315 l-382 386 l-84 -86 l306 -300 l-306 -300 l84 -83 l382 383 Z" /><glyph glyph-name="r" unicode="r" d="M785 300 l-452 -282 l0 564 l452 -282 Z" /><glyph glyph-name="t" unicode="t" d="M519 554 l282 -452 l-564 0 l282 452 Z" /><glyph glyph-name="l" unicode="l" d="M705 582 l0 -564 l-452 282 l452 282 Z" /><glyph glyph-name="b" unicode="b" d="M519 30 l-282 452 l564 0 l-282 -452 Z" /><glyph glyph-name="*" unicode="&#x2192;" d="M186 188 l0 286 l287 0 l0 217 l430 -361 l-430 -359 l0 217 l-287 0 Z" /><glyph glyph-name="*" unicode="&#x2193;" d="M378 659 l286 0 l0 -287 l217 0 l-361 -430 l-359 430 l217 0 l0 287 Z" /><glyph glyph-name="*" unicode="&#x2191;" d="M664 -34 l-286 0 l0 287 l-217 0 l361 430 l359 -430 l-217 0 l0 -287 Z" /><glyph glyph-name="*" unicode="&#x2190;" d="M871 467 l0 -286 l-287 0 l0 -217 l-430 361 l430 359 l0 -217 l287 0 Z" /><glyph glyph-name="s" unicode="s" d="M930 -39 l0 460 q-3 63 -68 69 l-612 0 q-31 -2 -50 -25 q-18 -24 -18 -53 l0 -451 q3 -63 68 -67 l614 0 q63 4 66 67 ZM846 332 l0 -290 q-6 -59 -68 -63 l-444 0 q-62 5 -68 63 l0 290 q2 26 21.5 49 q19.5 23 46.5 24 l444 0 q29 -1 48 -23 q18 -24 20 -50 ZM760 434 l86 0 q-9 115 -89 192 q-80 77 -198 80 q-119 -3 -200 -80 q-80 -77 -88 -192 l84 0 q8 81 64 133 q57 52 140 53 q80 -1 137 -53 q57 -52 64 -133 ZM505 285 l0 -187 l102 0 l0 187 l-102 0 Z" /><glyph glyph-name="c" unicode="c" d="M926 -36 l2 455 q-2 64 -68 69 l-606 0 q-31 0 -49 -23 q-19 -25 -19 -54 l0 -447 q3 -62 68 -66 l606 0 q65 4 66 66 ZM844 332 l0 -287 q-6 -59 -67 -62 l-440 0 q-60 4 -67 62 l0 287 q1 27 20.5 49 q19.5 22 46.5 23 l440 0 q29 -1 48 -23 q18 -22 19 -49 ZM668 586 l50 67 q-69 48 -162 49 q-117 -2 -197 -78 q-79 -75 -89 -191 l85 0 q8 81 63 132 q57 51 138 54 q64 -2 112 -33 ZM837 484 l-88 0 q8 -25 10 -51 l85 0 q-3 25 -7 51 ZM506 286 l0 -186 l102 0 l0 186 l-102 0 Z" /><glyph glyph-name="h" unicode="h" d="M281 330 l479 0 l0 210 l-60 0 l0 -150 l-358 0 l0 150 l-61 0 l0 -210 ZM507 434 l163 0 l0 106 l-60 0 l0 -75 l-44 0 l0 75 l-59 0 l0 -106 ZM895 540 l-60 0 l0 -555 l-630 2 l-1 628 l555 0 l0 59 l-614 0 l0 -748 l750 0 l0 614 ZM281 195 l479 0 l0 61 l-479 0 l0 -61 ZM281 60 l479 0 l0 60 l-479 0 l0 -60 Z" /><glyph glyph-name="y" unicode="y" d="M511 -123 l0 423 l0 423 q-19 -15 -159 -131 q-139 -118 -160 -133 l-104 0 l0 -317 l103 0 l320 -265 ZM944 209 q14 89 4 167 q-26 126 -119 223 q-22 21 -35 21 q-29 0 -34 -28 q-2 -12 23 -39 q80 -87 97 -193 q4 -17 4 -50 q0 -32 -1 -52 q-12 -123 -116 -227 q-21 -23 -20 -36 q2 -21 20 -27 q15 -4 28 0 q10 6 29 25 q20 21 39 45 q30 40 52 85.5 q22 45.5 29 85.5 ZM814 246 q4 18 4 51.5 q0 33.5 -6 51.5 q-15 86 -74 153 q-19 24 -36 31 q-20 10 -39 -8 q-5 -3 -3 -14 q-3 -15 20 -38 q47 -53 60 -113 q12 -32 7 -74 q-1 -50 -11 -74 q-20 -53 -64 -98 q-24 -27 -25 -36 q1 -10 10 -21 q6 -8 19 -11 q13 -2 21 3 q9 3 25 20 q16 17 31 36 q48 60 61 141 ZM634 167 q72 104 26 217 q-14 29 -30 52 q-19 20 -34 26 q-36 5 -43 -27 q-1 -10 19 -32 q23 -28 36 -61 q8 -30 4 -62 q-5 -44 -42 -89 q-22 -28 -22 -38 q3 -15 22 -25 q8 -5 21 1 q21 12 43 38 Z" /><glyph glyph-name="j" unicode="j" d="M926 387 q8 10 8 22 q0 11 -10 21 l-220 227 q-15 12 -33 6 q-14 -9 -13 -27 q0 -7 0 -54 q0 -47 0 -54 q-172 -10 -276 -104 q-74 -74 -94 -166 q-20 -90 -12 -144 q28 68 77 108 q80 52 146 58 q68 6 129 3 l30 0 l0 -107 q-1 -17 13 -22 q17 -7 33 7 l222 226 ZM719 560 l139 -154 l-139 -154 l0 62 q0 29 -31 30 l-61 0 q-55 1 -133 -10 q-78 -9 -144 -51 q24 48 73 98 q91 89 265 86 q29 3 31 30 l0 63 ZM199 12 l0 505 l108 0 l0 92 l-185 0 l0 -674 l660 0 l0 183 l-93 0 l0 -106 l-490 0 Z" /><glyph glyph-name="n" unicode="n" d="M287 225 q32 1 52.5 22 q20.5 21 21.5 52 q-1 32 -21.5 52.5 q-20.5 20.5 -52.5 21.5 q-30 -1 -52 -22 q-20 -20 -21 -52 q1 -31 21 -52 q22 -21 52 -22 ZM780 225 q31 1 52 22 q20 21 21 52 q-1 32 -21 52 q-21 21 -52 22 q-32 -1 -53 -22 q-20 -20 -21 -52 q1 -31 21 -52 q21 -21 53 -22 ZM534 225 q31 1 52 22 q20 21 21 52 q-1 32 -21.5 52.5 q-20.5 20.5 -51.5 21.5 q-32 -1 -52.5 -21.5 q-20.5 -20.5 -21.5 -52.5 q1 -31 21 -52 q21 -21 53 -22 Z" /><glyph glyph-name="hyphen" unicode="-" d="M884 237 l0 134 l-751 0 l0 -134 l751 0 Z" /><glyph glyph-name="q" unicode="q" d="M165 148 l304 -250 l0 400 q-2 351 0 404 q-17 -14 -150 -126 q-132 -111 -149 -125 l-102 0 l0 -303 l97 0 ZM737 124 q-75 1 -126 51 q-48 49 -49 124 q1 77 49 126 q51 49 126 50 q75 -1 126 -50 q48 -49 50 -126 q-2 -75 -50 -124 q-51 -50 -126 -51 ZM737 65 q99 2 167 69 q65 66 68 165 q-3 100 -68 165 q-68 69 -167 71 q-99 -2 -164 -71 q-67 -65 -70 -165 q3 -98 70 -165 q65 -67 164 -69 ZM587 417 l33 49 l268 -284 l-32 -51 l-269 286 Z" /><glyph glyph-name="p" unicode="p" d="M896 493 q41 4 45 43 q-4 40 -45 42 l-751 0 q-42 -2 -46 -42 q4 -39 46 -43 l751 0 ZM730 623 q30 5 36 35 l0 18 q-6 29 -36 35 l-419 0 q-30 -6 -35 -35 l0 -18 q5 -30 35 -35 l419 0 ZM193 442 l-11 2 l0 -509 q1 -25 21 -35 q23 -11 48 -11 l526 0 q27 0 45 14 q22 11 24 37 l0 499 l-5 0 q-9 28 -41 30 q-30 -2 -43 -30 q0 3 -2 2 q-1 -2 -1 -30 l0 -411 q-3 -26 -30 -28 l-33 0 q-27 2 -31 28 l0 439 q-10 28 -39 30 q-31 -2 -43 -30 q-1 3 -3 1.5 q-2 -1.5 -2 -29.5 l0 -411 q-2 -26 -28 -28 l-61 0 q-29 2 -29 28 l0 411 q0 28 -1 30 q-1 1 -1 -2 q-4 8 -8 12 q-4 5 -10 9 q-4 2 -11 6 q-6 2 -13 1 q-6 1 -14 -1 l-11 -6 q-5 -4 -10 -9 q-3 -6 -7 -12 q0 3 -0.5 1.5 q-0.5 -1.5 -0.5 -29.5 l0 -410 q-2 -24 -28 -27 l-33 0 q-28 3 -30 27 l0 413 q0 27 -1 28 q0 2 0 0 q-3 6 -7 11 q-5 5 -11 9 q-3 1 -10 5 q-6 2 -13 2 q-8 0 -15 -2 q-6 -4 -12 -5 q-3 -4 -8 -9 q-4 -6 -7 -11 Z" /><glyph glyph-name="u" unicode="u" d="M927 363 l-138 0 q-10 30 -23 58 l105 101 l-116 115 l-108 -107 q-22 14 -46 20 l-3 160 l-157 0 l1 -163 q-23 -8 -44 -18 l-116 106 l-112 -121 l112 -99 q-15 -24 -23 -52 l-146 0 l0 -157 l147 0 q8 -22 18 -42 l-101 -98 l116 -115 l98 97 q21 -13 47 -21 l3 -137 l157 0 l1 134 q26 8 50 21 l101 -102 l118 115 l-102 99 q13 23 22 49 l139 0 l0 157 ZM522 420 q57 -4 95 -41 q36 -36 36 -92 q-1 -55 -39 -93 q-35 -37 -92 -38 q-57 1 -93 38 q-38 38 -40 93 q2 56 39 92 q37 37 94 41 Z" /><glyph glyph-name="z" unicode="z" d="M521 702 l148 -258 l282 -51 l-199 -202 l47 -293 l-260 145 l-269 -145 l41 301 l-194 194 l274 44 l130 265 Z" /><glyph glyph-name="a" unicode="a" d="M871 358 q15 -3 15 15 q-4 21 -17 97 q-14 76 -16 92 q-7 15 -20 7 q-4 -4 -30 -27 q-53 64 -126 100 q-73 37 -160 39 q-132 -4 -227 -82 q-97 -78 -131 -201 q31 -13 75 -28 q24 100 101 163 q77 63 182 65 q141 -4 225 -108 q-44 -37 -52 -45 q-9 -14 4 -22 q17 -6 89 -33 q71 -26 88 -32 ZM169 237 q-15 1 -15 -12 q2 -20 15 -96 q13 -77 17 -94 q7 -14 19 -7 q6 5 30 25 q51 -62 123 -97 q73 -35 158 -37 q130 3 226.5 80.5 q96.5 77.5 132.5 201.5 q-36 12 -76 28 q-25 -100 -101 -163 q-76 -63 -181 -65 q-138 3 -222 105 q46 36 53 44 q11 14 -2 21 q-15 7 -88 33 q-72 27 -89 33 Z" /><glyph glyph-name="plus" unicode="+" d="M530 813 q219 -7 364 -152 q146 -143 150 -362 q-4 -220 -150 -363 q-145 -146 -364 -149 q-218 3 -363 149 q-143 143 -149 363 q6 219 149 362 q145 145 363 152 ZM530 -134 q188 5 309 125 q121 124 126 310 q-5 184 -127 305.5 q-122 121.5 -308 127.5 q-184 -6 -306 -127.5 q-122 -121.5 -128 -305.5 q6 -186 127 -310 q123 -120 307 -125 ZM577 343 l216 0 l0 -87 l-216 0 l0 -221 l-89 0 l0 221 l-218 0 l-1 43 l1 44 l218 0 l0 217 l89 0 l0 -217 Z" /><glyph glyph-name="H" unicode="h" d="M785 -7 l0 86 l-547 0 l0 -86 l547 0 ZM230 551 l564 0 l-282 -452 l-282 452 Z" /><glyph glyph-name="Y" unicode="y" d="M253 591 l0 -86 l547 0 l0 86 l-547 0 ZM527 485 l282 -452 l-564 0 l282 452 Z" /><glyph glyph-name="J" unicode="j" d="M612 367 l337 0 l0 -128 l-337 0 l0 -326 l-139 0 l0 326 l-340 0 l-1 63 l1 65 l340 0 l0 320 l139 0 l0 -320 Z" /><glyph glyph-name="W" unicode="w" d="M281 543 q-27 -1 -53 -1 l-83 0 q-18 0 -36.5 -6 q-18.5 -6 -32.5 -18.5 q-14 -12.5 -23 -32 q-9 -19.5 -9 -45.5 l0 -76 l912 0 l0 41 q0 16 -0.5 30 q-0.5 14 -0.5 18 q0 13 -5 29 q-5 16 -17 29.5 q-12 13.5 -31.5 22.5 q-19.5 9 -49.5 9 l-133 0 l0 -97 l-438 0 l0 97 ZM955 310 l0 -52 q0 -23 0.5 -52 q0.5 -29 0.5 -58 q0 -29 -10.5 -47.5 q-10.5 -18.5 -26 -30 q-15.5 -11.5 -33 -16 q-17.5 -4.5 -31.5 -4.5 q-14 -1 -29.5 -0.5 q-15.5 0.5 -29.5 0.5 l-32 0 l-45 128 l-439 0 l-44 -128 l-29 0 l-34 0 q-20 0 -45 1 q-25 0 -41 9.5 q-16 9.5 -25.5 23 q-9.5 13.5 -13.5 29.5 q-4 16 -4 30 l0 167 l911 0 ZM163 247 q-12 0 -21 -8.5 q-9 -8.5 -9 -21.5 q0 -13 9 -21.5 q9 -8.5 21 -8.5 q13 0 22 8.5 q9 8.5 9 21.5 q0 13 -9 21.5 q-9 8.5 -22 8.5 ZM316 123 q-8 -26 -14 -48 q-5 -19 -10.5 -37 q-5.5 -18 -7.5 -25 q-2 -7 -3 -15 q-1 -8 1 -14.5 q2 -6.5 9.5 -10.5 q7.5 -4 21.5 -4 l37 0 l67 0 l81 0 l80 0 l64 0 l36 0 q23 0 34 12 q11 12 2 38 q-5 13 -9.5 30.5 q-4.5 17.5 -9.5 34.5 q-5 19 -11 39 l-368 0 ZM336 498 l0 228 q0 11 2.5 23 q2.5 12 10 21.5 q7.5 9.5 20.5 15.5 q13 6 34 6 l188 0 q31 0 51.5 -14.5 q20.5 -14.5 20.5 -52.5 l0 -227 l-327 0 Z" /><glyph glyph-name="dollar" unicode="$" d="M845 226 q-5 8 -11 8 q-31 1 -33 2 q-7 0 -4 1 q1 0 -1 0 q0 0 -5 0 q-6 -1 -12 -5 q-6 -4 -8 -10 q0 0 0 -35 q0 -35 0.5 -73 q0.5 -38 0.5 -74 l0 -36 q-1 -7 -168 -9.5 q-167 -2.5 -173 6.5 q-3 4 31 44 q34 40 44 47 q5 3 2.5 12.5 q-2.5 9.5 1.5 13.5 l9 9 l0 15 q0 2 1 9 q1 7 0.5 12 q-0.5 5 -2.5 8 q0 0 -5 5 q-5 4 -5 8 q-1 0 -2 1 q-8 2 -3 8 q1 3 4 5 q3 2 4.5 4.5 q1.5 2.5 1.5 6.5 q0 8 -7 11 q-2 1 -3 2 q-4 1 -5 3.5 q-1 2.5 -0.5 4.5 q0.5 2 2 5.5 q1.5 3.5 2.5 5.5 l4 13 l6 17 q30 94 40 126 q1 1 9 26 q1 4 2 6 q4 11 10 34.5 q6 23.5 10 34.5 q2 5 3 7 q4 7 9 11 q6 6 7 13 q0 2 1.5 3.5 q1.5 1.5 5 2 q3.5 0.5 4.5 0.5 q2 1 10.5 4 q8.5 3 13.5 5 q13 4 13 6 q1 7 -1.5 9.5 q-2.5 2.5 -10.5 4.5 q-4 1 -15.5 3 q-11.5 2 -17.5 5 q-29 14 -31 14 q-33 30 -50 46 q-49 45 -52 48 q-8 7 -22 20 q-11 6 -13 13 q-3 3 -3 4.5 q0 1.5 2.5 5.5 q2.5 4 2.5 6 q3 11 -10 24 q-8 8 -24.5 23 q-16.5 15 -20.5 18 q17 12 4 27 q-14 16 -31 3 q-6 -5 -6.5 -13 q-0.5 -8 4.5 -13 q2 -2 2.5 -3.5 q0.5 -1.5 -1.5 -2.5 l-2 -4 q-2 -1 -4 -2.5 q-2 -1.5 -3 -3.5 q-13 -12 -15 -14 l-4 -4 l-4 -4 q-1 -1 -3 -3.5 q-2 -2.5 -3 -4 q-1 -1.5 -2 -4 q-1 -2.5 -1.5 -4.5 q-0.5 -2 -0.5 -4.5 q0 -2.5 1 -5.5 q0 -2 1 -5 l2 -5 q0 -1 -0.5 -3 q-0.5 -2 -2.5 -4 q-7 -8 -16 -17 q-53 -52 -70 -70 q-14 -14 -23 -22 q-9 -8 -25.5 -16.5 q-16.5 -8.5 -32.5 -8.5 q-10 -1 -14 -4 q-4 -3 -1.5 -8.5 q2.5 -5.5 5.5 -10.5 q3 -5 9 -11.5 q6 -6.5 7 -7.5 q3 -5 14.5 -8.5 q11.5 -3.5 14.5 -5.5 q3 -3 5 -7.5 q2 -4.5 3 -8.5 q1 -4 2 -10.5 q1 -6.5 2 -7.5 q4 -17 12.5 -47 q8.5 -30 11.5 -40 q5 -20 16.5 -62 q11.5 -42 17.5 -63 q2 -6 5 -18 q3 -12 5 -17 q0 -2 4 -15 l0 -1 q1 -3 1 -4 q0 -1 -2 -1 q-2 -1 -3.5 -2 q-1.5 -1 -3.5 -2 l-3 -1 q-1 -1 -1.5 -3 q-0.5 -2 -0.5 -4 q0 -12 6 -16 q4 -3 -6 -4 q-2 0 -6 -1 q-6 -1 -7 -1 q-2 -1 -7 -7.5 q-5 -6.5 -6 -7.5 q-5 -4 -7 -10.5 q-2 -6.5 -2 -11.5 q0 -5 0.5 -14 q0.5 -9 0.5 -12 q2 -1 6.5 -6 q4.5 -5 3.5 -6 q2 -4 0.5 -10.5 q-1.5 -6.5 -0.5 -9.5 q2 -4 9 -9 q7 -5 8 -6 q0 -1 54 -65.5 q54 -64.5 57 -70.5 q5 -15 21 -17 q15 3 19 10 q8 -6 222 -7 q214 -1 219 4 q1 1 3.5 3 q2.5 2 4.5 4 l3 3 l-1 1 q0 171 1 226 q0 1 0.5 6.5 q0.5 5.5 0.5 11.5 l0 13 q0 7 -1.5 13.5 q-1.5 6.5 -4.5 9.5 ZM448 522 l124 -15 l-85 -267 l-65 2 l26 280 ZM207 518 l221 4 l-26 -281 l-122 4 l-73 273 ZM272.5 144.5 q-4.5 3.5 -4.5 9 q0 5.5 4.5 9.5 q4.5 4 11.5 4 l189 0 q7 0 11 -4 q4 -4 4 -9.5 q0 -5.5 -4 -9 q-4 -3.5 -11 -3.5 l-189 0 q-7 0 -11.5 3.5 ZM294 87 q-6 0 -10 3.5 q-4 3.5 -4 9 q0 5.5 4 9 q4 3.5 10 3.5 l169 0 q6 0 10 -3.5 q4 -3.5 4 -9 q0 -5.5 -4 -9 q-4 -3.5 -10 -3.5 l-169 0 Z" /><glyph glyph-name="i" unicode="i" d="M623.5 644.5 q-53.5 15.5 -108 15.5 q-54.5 0 -108 -15.5 q-53.5 -15.5 -95.5 -40 q-42 -24.5 -79.5 -54.5 q-37.5 -30 -64 -59 q-26.5 -29 -46.5 -54 q-20 -25 -29.5 -40 q-9.5 -15 -9.5 -16 q3 -5 10 -15 q7 -10 30 -38.5 q23 -28.5 48 -54 q25 -25.5 64.5 -57 q39.5 -31.5 80 -54.5 q40.5 -23 93.5 -38.5 q53 -15.5 107 -15.5 q56 0 110 15.5 q54 15.5 95 40.5 q41 25 77.5 55.5 q36.5 30.5 62 60.5 q25.5 30 44.5 55 q19 25 27 41 l9 15 q0 0 -9 15 q-6 10 -28 38 q-22 28 -46 53 q-24 25 -62 56 q-38 31 -78.5 53.5 q-40.5 22.5 -94 38 ZM197 381 q66 87 146.5 130 q80.5 43 165.5 44 q-61 -1 -103 -44.5 q-42 -43.5 -42 -103.5 q0 -61 43.5 -104.5 q43.5 -43.5 105 -43.5 q61.5 0 105 43.5 q43.5 43.5 43.5 104.5 q0 61 -43 104.5 q-43 43.5 -104 44.5 q92 0 176 -44.5 q84 -44.5 138 -120.5 q-80 -92 -159.5 -136 q-79.5 -44 -158 -40.5 q-78.5 3.5 -155 45 q-76.5 41.5 -158.5 121.5 ZM540 384 l0 81 l81 0 l0 -81 l-81 0 Z" /><glyph glyph-name="A" unicode="a" d="M731 774 q-68 0 -126 -35.5 q-58 -35.5 -90 -94.5 q-32 59 -90 94.5 q-58 35.5 -127 35.5 q-102 0 -173.5 -72 q-71.5 -72 -71.5 -174 q0 -96 65 -167 l376 -378 q9 -8 20.5 -8 q11.5 0 21.5 8 l375 378 q65 71 65 167 q0 102 -71.5 174 q-71.5 72 -173.5 72 Z" /><glyph glyph-name="B" unicode="b" d="M727 774 q-68 0 -125.5 -35.5 q-57.5 -35.5 -89.5 -94.5 q-32 59 -89.5 94.5 q-57.5 35.5 -126.5 35.5 q-101 0 -172 -71.5 q-71 -71.5 -71 -173.5 q0 -95 64 -166 l374 -376 q10 -8 21 -8 q11 0 21 8 l374 376 q64 70 64 166 q0 102 -71.5 173.5 q-71.5 71.5 -172.5 71.5 ZM860 403 l-348 -354 l-348 354 q-50 53 -50 126 q0 76 53.5 130 q53.5 54 128.5 54 q60 0 109 -36 q49 -36 67 -92 q5 -12 16 -20 q11 -8 24 -8 q29 0 40 27 q18 57 66.5 93 q48.5 36 108.5 36 q76 0 129.5 -53.5 q53.5 -53.5 53.5 -130.5 q0 -73 -50 -126 Z" /><glyph glyph-name="k" unicode="k" d="M221 -18 l-88 0 l0 64 q0 59 39.5 91.5 q39.5 32.5 85.5 32.5 q67 0 254 -2 q186 -2 252 -2 q17 0 27.5 3.5 q10.5 3.5 14.5 10 q4 6.5 5 11 q1 4.5 1 11.5 q0 44 -38 44 q0 0 -469 0 l-62 0 q-14 0 -31.5 7 q-17.5 7 -36 22 q-18.5 15 -30.5 42.5 q-12 27.5 -12 63.5 q0 67 35 99 q35 32 84 32 l528 0 q32 0 32 47 q0 19 -7 27 q-7 8 -26 10 l-518 0 q-61 0 -97 41 q-20 21 -30 52.5 q-10 31.5 -9.5 51.5 q0.5 20 0.5 32 l0 13 l88 0 l-1 -19 q-1 -15 2.5 -37 q3.5 -22 14.5 -34 q11 -12 32 -12 l522 0 l2 0 q54 -5 84.5 -38 q30.5 -33 30.5 -87 q0 -66 -35.5 -100.5 q-35.5 -34.5 -84.5 -34.5 l-528 0 q-7 0 -10.5 -1 q-3.5 -1 -9 -4.5 q-5.5 -3.5 -8.5 -13 q-3 -9.5 -3 -24.5 q0 -40 25 -47 l59 0 q0 0 240 0 l229 0 q61 0 93.5 -39.5 q32.5 -39.5 32.5 -91.5 q0 -57 -37 -91 q-37 -34 -99 -34 q-67 0 -253 2 q-185 2 -253 2 q-5 0 -11 -1 q-6 -1 -16 -10 q-10 -9 -10 -25 l0 -64 Z" /><glyph glyph-name="m" unicode="m" d="M420 538 l-185 -185 l0 -246 l185 0 l0 431 ZM666 538 l-185 246 l0 -677 l185 0 l0 431 ZM728 538 l0 -431 l184 0 l0 246 l-184 185 ZM851 45 l0 0 l-678 0 l0 612 l54 0 l-57 60 l-58 -56 l0 -616 q0 -4 28.5 -32.5 q28.5 -28.5 32.5 -28.5 l678 0 l61 59 l-61 56 l0 -54 Z" /><glyph glyph-name="o" unicode="o" d="M596.5 624 q-33.5 33 -80 33 q-46.5 0 -79.5 -33 q-33 -33 -33 -79.5 q0 -46.5 33 -80 q33 -33.5 79.5 -33.5 q46.5 0 80 33.5 q33.5 33.5 33.5 80 q0 46.5 -33.5 79.5 ZM583.5 478.5 q-27.5 -27.5 -66.5 -27.5 q-39 0 -66.5 27.5 q-27.5 27.5 -27.5 65.5 q0 35 22 60.5 q22 25.5 54 32.5 l0 -83 l36 0 l0 83 q32 -7 54 -32.5 q22 -25.5 22 -60.5 q0 -38 -27.5 -65.5 ZM811 723 l-598 0 q-26 0 -44 -18 q-18 -18 -18 -44 l0 -242 q0 -26 18 -44.5 q18 -18.5 44 -18.5 l598 0 q26 0 44 18.5 q18 18.5 18 44.5 l0 242 q0 26 -18 44 q-18 18 -44 18 ZM622.5 438.5 q-43.5 -43.5 -105.5 -43.5 q-62 0 -106 43.5 q-44 43.5 -44 105.5 q0 62 44 106 q44 44 106 44 q62 0 105.5 -44 q43.5 -44 43.5 -106 q0 -62 -43.5 -105.5 ZM801 347 l0 -35 l-495 0 l-59 -71 q-19 41 -19 106 l-10 0 q0 0 0 -17 q0 -118 88 -201.5 q88 -83.5 212.5 -83.5 q124.5 0 212.5 83.5 q88 83.5 88 201.5 q0 8 -1 17 l-17 0 ZM553.5 94 q-10.5 -11 -26 -11 q-15.5 0 -26 11 q-10.5 11 -10.5 26 q0 15 10.5 25.5 q10.5 10.5 26 10.5 q15.5 0 26 -10.5 q10.5 -10.5 10.5 -25.5 q0 -15 -10.5 -26 ZM598 104 q-17 0 -17 57 q27 8 50 23 q23 15 36.5 31 q13.5 16 23 31.5 q9.5 15.5 12.5 24 q3 8.5 3 9.5 q51 -9 64 -23 q-90 -153 -172 -153 Z" /><glyph glyph-name="w" unicode="w" d="M859 107 l-78 134 l-76 -133 q-19 -26 -19 -58 q0 -39 28 -67.5 q28 -28.5 67.5 -28.5 q39.5 0 67.5 28.5 q28 28.5 28 67.5 q0 32 -18 57 ZM714 403 l0 -45 q-9 0 -16 -7 q-7 -7 -7 -16 l0 -46 q0 -9 7 -15.5 q7 -6.5 16 -6.5 l137 0 q9 0 16 6.5 q7 6.5 7 15.5 l0 46 q0 9 -7 16 q-7 7 -16 7 l0 159 q0 10 -7 16.5 q-7 6.5 -16 6.5 l-46 0 l-45 0 l-46 0 l-84 0 q-32 55 -93 73 q18 10 18 30 q0 14 -10 24 q-10 10 -24 10 l-12 0 l0 45 l103 0 q14 0 24 10 q10 10 10 24.5 q0 14.5 -10 24.5 q-10 10 -24 10 l-103 0 q0 10 -6 16.5 q-6 6.5 -16.5 6.5 q-10.5 0 -16.5 -6.5 q-6 -6.5 -6 -16.5 l-103 0 q-14 0 -24 -10 q-10 -10 -10 -24.5 q0 -14.5 10 -24.5 q10 -10 24 -10 l103 0 l0 -45 l-12 0 q-14 0 -24 -10 q-10 -10 -10 -24 q0 -23 21 -32 q-43 -14 -73 -48 l-196 0 l0 -182 l176 0 q21 -40 59.5 -64 q38.5 -24 84.5 -24 q60 0 105 38 q45 38 56 95 l63 0 q10 0 16.5 -6.5 q6.5 -6.5 6.5 -16.5 Z" /><glyph glyph-name="C" unicode="c" d="M542 190 q-15 -5 -28 -13 q-31 -22 -38 -59.5 q-7 -37.5 14 -68.5 q17 -24 44.5 -34.5 q27.5 -10.5 55.5 -2.5 q15 4 28 13 q32 21 39 58.5 q7 37.5 -15 68.5 q-16 25 -44 35 q-28 10 -56 3 ZM245.5 44.5 q-4.5 17.5 -21 26 q-16.5 8.5 -34.5 4 q-18 -4.5 -27.5 -20.5 q-9.5 -16 -4.5 -33 q5 -17 21 -26 q16 -9 34 -4 q18 5 27.5 20.5 q9.5 15.5 5 33 ZM762 789 l-120 -198 l-156 85 l121 198 q-63 20 -126 -3 q-63 -23 -97 -80 l-54 -88 q-34 -58 -23.5 -121 q10.5 -63 59.5 -105 l-78 -129 l-164 -271 q-19 -31 -9.5 -65.5 q9.5 -34.5 41.5 -52.5 q32 -18 68 -8 q36 10 55 41 l44 73 l-8 26 l25 12 q0 0 0 2 q0 0 0 6 l-41 14 l44 129 l39 -12 q6 7 7 8 l-18 38 l83 56 l24 -24 l43 72 q63 -19 126 3.5 q63 22.5 97 79.5 l54 89 q34 57 23.5 120.5 q-10.5 63.5 -59.5 104.5 ZM245.5 45.5 q4.5 -17.5 -5 -33 q-9.5 -15.5 -27.5 -20.5 q-18 -5 -34 4 q-16 9 -21 26 q-5 17 4.5 33 q9.5 16 27.5 20.5 q18 4.5 34.5 -4 q16.5 -8.5 21 -26 ZM763 191 l-41 -4 q-4 7 -10 15 q0 0 -10 14 l19 37 l-48 37 l-31 -28 q-16 8 -33 12 l-6 41 l-61 2 l-9 -40 q-7 -2 -13 -3 q0 0 -21 -7 l-29 30 l-50 -35 l17 -38 q-12 -13 -22 -28 l-40 7 l-21 -58 l36 -20 q-2 -18 -1 -36 l-37 -18 l17 -59 l41 5 q0 0 10 -16 q6 -8 10 -14 l-19 -36 l48 -38 l31 28 q17 -8 33 -12 l6 -41 l62 -2 l8 41 q8 1 13 3 q11 3 21 7 l29 -30 l50 35 l-17 37 q12 13 22 29 l40 -8 l21 58 l-36 21 q2 17 1 35 l37 18 l-17 59 ZM618 26 q-13 -9 -28 -13 q-28 -8 -55.5 2.5 q-27.5 10.5 -44.5 34.5 q-21 31 -14 68.5 q7 37.5 38 59.5 q13 9 28 13 q28 7 56 -3 q28 -10 44 -35 q22 -31 15 -68.5 q-7 -37.5 -39 -58.5 Z" /><glyph glyph-name="E" unicode="e" d="M924 598 l-10 7 l0 79 q0 27 -21 45 q-21 18 -48.5 25.5 q-27.5 7.5 -57.5 7.5 l-533 0 q-49 0 -86 -19.5 q-37 -19.5 -38 -58.5 l0 -79 l-9 -7 q-32 0 -51 -17.5 q-19 -17.5 -19 -47.5 l0 -308 q0 -30 19.5 -51.5 q19.5 -21.5 50.5 -21.5 l5 0 l0 291 q0 37 19 60 q13 13 26.5 19 q13.5 6 37.5 6 l627 0 q40 0 64 -25 q19 -21 19 -60 l0 -291 l6 0 q30 0 49 21.5 q19 21.5 19 51.5 l0 308 q0 30 -19 47.5 q-19 17.5 -50 17.5 ZM836 605 l-627 0 l0 79 q0 8 35 9 l7 0 l542 0 l6 0 q37 -1 37 -9 l0 -79 ZM757 371 l-470 0 q-49 0 -63.5 -16.5 q-14.5 -16.5 -14.5 -62.5 l0 -392 q0 -48 13.5 -63 q13.5 -15 64.5 -15 l470 0 l33 0 q12 0 22 3.5 q10 3.5 13.5 7 q3.5 3.5 6.5 14.5 q3 11 3.5 21 q0.5 10 0.5 32 l0 392 q0 51 -12.5 65 q-12.5 14 -66.5 14 ZM757 -21 q0 -55 -11.5 -67 q-11.5 -12 -66.5 -12 l-313 0 q-49 0 -64 14 q-15 14 -15 65 l0 234 q0 45 15 62 q15 17 64 17 l313 0 q47 0 62.5 -16 q15.5 -16 15.5 -63 l0 -234 ZM646 214 l-248 0 q-14 0 -23.5 -9.5 q-9.5 -9.5 -9.5 -23.5 l0 -13 q0 -14 9.5 -24 q9.5 -10 23.5 -10 l248 0 q14 0 23.5 10 q9.5 10 9.5 24 l0 13 q0 14 -9.5 23.5 q-9.5 9.5 -23.5 9.5 ZM646 56 l-248 0 q-14 0 -23.5 -9.5 q-9.5 -9.5 -9.5 -23.5 l0 -10 q0 -14 9.5 -24 q9.5 -10 23.5 -10 l248 0 q14 0 23.5 10 q9.5 10 9.5 24 l0 10 q0 14 -9.5 23.5 q-9.5 9.5 -23.5 9.5 Z" /><glyph glyph-name="percent" unicode="%" d="M936 682 l-832 0 l0 -777 l338 0 l-14 -19 l-93 -122 l185 0 l185 0 l-93 122 l-14 19 l338 0 l0 777 ZM789 43 l-538 0 l0 502 l538 0 l0 -502 Z" /><glyph glyph-name="I" unicode="i" d="M954 226 q-45 0 -68 -37 l-144 0 l-114 214 l-87 -302 l-59 608 l-77 6 l-149 -526 l-245 0 l0 -74 l305 0 l108 380 l59 -604 l77 -6 l90 312 l44 -82 l192 0 q23 -36 68 -36 q32 0 55 21.5 q23 21.5 23 52 q0 30.5 -23 52 q-23 21.5 -55 21.5 Z" /><glyph glyph-name="K" unicode="k" d="M874 -99 l0 653 l-145 0 l0 -653 l-144 0 l0 580 l-146 0 l0 -580 l-144 0 l0 435 l-145 0 l0 -435 l-73 0 l0 -72 l870 0 l0 72 l-73 0 ZM729 626 l145 73 l0 72 l-145 -72 l-434 0 l-218 -145 l0 -73 l218 145 l434 0 Z" /><glyph glyph-name="L" unicode="l" d="M874 -62 l-724 0 l0 653 l58 0 l-60 65 l-55 -56 q-8 -1 -8 -4 l0 -658 q0 -7 43 -14 q4 -17 11 -34 q7 -17 11 -17 l724 0 q6 0 30 29 l35 34 l-65 60 l0 -58 ZM611 727 l0 -328 l328 0 q0 328 -328 328 ZM587 71 q117 0 203 75.5 q86 75.5 99 186.5 l-344 0 l0 323 q-112 -15 -187.5 -97.5 q-75.5 -82.5 -75.5 -193.5 q0 -80 40.5 -147.5 q40.5 -67.5 111 -107 q70.5 -39.5 153.5 -39.5 Z" /><glyph glyph-name="M" unicode="m" d="M512 765 q-31 0 -83.5 -51.5 q-52.5 -51.5 -103 -127.5 q-50.5 -76 -87 -172.5 q-36.5 -96.5 -36.5 -174.5 q0 -110 41.5 -203 q41.5 -93 113 -147 q71.5 -54 155.5 -54 q84 0 155.5 54 q71.5 54 113 147 q41.5 93 41.5 203 q0 78 -38 175 q-38 97 -89 172.5 q-51 75.5 -102.5 127 q-51.5 51.5 -80.5 51.5 ZM286 400 q13 43 30.5 84.5 q17.5 41.5 36 73 q18.5 31.5 38 60.5 q19.5 29 36.5 49.5 q17 20.5 31 34.5 q14 14 23 21 l9 8 q22 -137 -64 -281 q-51 -89 -103 -117 q-42 -24 -45 16 q0 20 8 51 ZM469 -118 q48 26 88 58.5 q40 32.5 68 66 q28 33.5 49.5 71.5 q21.5 38 33.5 70.5 q12 32.5 20.5 66.5 q8.5 34 11.5 58 q3 24 4 47.5 q1 23.5 1 30.5 l0 10 q1 -1 4.5 -6 q3.5 -5 12 -24.5 q8.5 -19.5 11.5 -44 q3 -24.5 -3 -69.5 q-6 -45 -22 -97 q-14 -41 -32 -75.5 q-18 -34.5 -36.5 -57.5 q-18.5 -23 -40.5 -41.5 q-22 -18.5 -41 -29.5 q-19 -11 -38.5 -18.5 q-19.5 -7.5 -35.5 -10.5 q-16 -3 -28.5 -4 q-12.5 -1 -19.5 -1 q0 0 -7 0 Z" /><glyph glyph-name="N" unicode="n" d="M590.5 174 q-32.5 33 -78.5 33 q-46 0 -78.5 -33 q-32.5 -33 -32.5 -79 q0 -46 32.5 -78.5 q32.5 -32.5 78.5 -32.5 q46 0 78.5 32.5 q32.5 32.5 32.5 78.5 q0 46 -32.5 79 ZM698 328 l0 289 q0 76 -54.5 130.5 q-54.5 54.5 -131.5 54.5 q-77 0 -131.5 -54.5 q-54.5 -54.5 -54.5 -130.5 l0 -289 q-52 -43 -82 -103 q-30 -60 -30 -129 q0 -123 87.5 -210.5 q87.5 -87.5 210.5 -87.5 q123 0 210.5 87.5 q87.5 87.5 87.5 210.5 q0 69 -30 129 q-30 60 -82 103 ZM670 -62.5 q-65 -65.5 -158 -65.5 q-93 0 -158 65.5 q-65 65.5 -65 158.5 q0 60 30 111 q30 51 82 81 l0 329 q0 46 32.5 78.5 q32.5 32.5 78.5 32.5 q46 0 78.5 -32.5 q32.5 -32.5 32.5 -78.5 l-74 0 q-15 0 -26 -11 q-11 -11 -11 -26.5 q0 -15.5 11 -26.5 q11 -11 26 -11 l74 0 l0 -74 l-74 0 q-15 0 -26 -11 q-11 -11 -11 -26.5 q0 -15.5 11 -26.5 q11 -11 26 -11 l74 0 l0 -105 q52 -30 82 -81 q30 -51 30 -111 q0 -93 -65 -158.5 Z" /><glyph glyph-name="O" unicode="o" d="M955 409 l0 264 l-255 0 l89 -91 l-224 -238 l-78 82 l-60 -62 l0 -1 l-365 -374 l61 -62 l363 374 l19 -20 l-1 -1 l61 -62 l0 1 l0 -1 l60 62 l-1 1 l225 238 l106 -110 Z" /><glyph glyph-name="P" unicode="p" d="M503 -21 l-47 85 l35 64 l77 0 l37 -64 l-48 -85 l50 -90 l47 85 l47 -84 l53 0 l27 47 l-48 84 l96 0 l-50 90 l-95 0 l-37 64 l39 70 l72 0 l47 -85 l100 0 l-47 85 l94 0 l26 47 l-26 47 l-94 0 l47 85 l-100 0 l-47 -85 l-72 0 l-39 70 l37 64 l95 0 l50 90 l-96 0 l48 84 l-27 47 l-53 0 l-47 -84 l-47 85 l-50 -90 l48 -85 l-37 -64 l-77 0 l-35 64 l47 85 l-51 90 l-47 -85 l-46 84 l-53 0 l-27 -47 l47 -84 l-95 0 l51 -90 l94 0 l36 -64 l-39 -70 l-71 0 l-48 86 l-100 0 l47 -86 l-93 0 l-27 -47 l27 -47 l93 0 l-47 -85 l100 0 l48 85 l71 0 l39 -70 l-36 -64 l-94 0 l-51 -90 l95 0 l-47 -84 l27 -47 l53 0 l46 84 l47 -85 l51 90 ZM493 226 l-36 66 l36 66 l73 0 l37 -66 l-37 -66 l-73 0 Z" /><glyph glyph-name="Q" unicode="q" d="M921 -4 l0 357 q0 99 -56 182.5 q-56 83.5 -148.5 128.5 q-92.5 45 -198 45 q-105.5 0 -197 -45 q-91.5 -45 -147 -128.5 q-55.5 -83.5 -55.5 -182.5 l0 -357 q-16 0 -26 -2 q-10 -2 -13.5 -9 q-3.5 -7 -4.5 -13.5 q-1 -6.5 -1 -19.5 q0 -15 0.5 -20.5 q0.5 -5.5 4.5 -13 q4 -7.5 14 -9.5 q10 -2 26 -2 l802 0 q29 1 37 11 q8 10 8 34 q0 24 -8.5 34 q-8.5 10 -36.5 10 ZM832 -4 l-624 0 q0 0 0 22 l0 38 l0 30 l0 267 q0 118 92.5 197 q92.5 79 218.5 79 q81 0 152.5 -35.5 q71.5 -35.5 116 -99 q44.5 -63.5 44.5 -141.5 l0 -267 q0 -10 0.5 -29 q0.5 -19 0.5 -35.5 q0 -16.5 -1 -25.5 ZM470 565 q-26 8 -67.5 -19.5 q-41.5 -27.5 -73.5 -71.5 q-19 -23 -35.5 -56 q-16.5 -33 -24.5 -54 l-8 -22 q-6 -16 0.5 -30.5 q6.5 -14.5 21.5 -22.5 q12 -7 28 -2 q16 5 22 21 q11 57 49 113 q18 28 42.5 51 q24.5 23 40.5 31 l16 9 q15 11 11 29 q-4 18 -22 24 Z" /><glyph glyph-name="R" unicode="r" d="M604 428 q-40 0 -79 -11 q-39 -11 -69.5 -29 q-30.5 -18 -57.5 -39.5 q-27 -21.5 -47 -43 q-20 -21.5 -34 -39.5 q-14 -18 -21.5 -29 q-7.5 -11 -6.5 -11 q5 -8 14.5 -21.5 q9.5 -13.5 41.5 -47.5 q32 -34 66 -60.5 q34 -26.5 86.5 -48 q52.5 -21.5 106.5 -21.5 q56 0 108.5 21.5 q52.5 21.5 87.5 51 q35 29.5 61.5 61 q26.5 31.5 39 51 q12.5 19.5 12.5 21.5 q-4 8 -13 21 q-9 13 -39.5 47 q-30.5 34 -64 59.5 q-33.5 25.5 -86 46.5 q-52.5 21 -106.5 21 ZM372 226 q94 124 226 127 q-43 -2 -73.5 -33 q-30.5 -31 -30.5 -75 q0 -45 31.5 -76.5 q31.5 -31.5 76 -31.5 q44.5 0 76.5 31.5 q32 31.5 32 76.5 q0 44 -31.5 75.5 q-31.5 31.5 -76.5 32.5 q67 0 128 -32.5 q61 -32.5 101 -87.5 q-77 -89 -155 -115.5 q-78 -26.5 -151 1.5 q-73 28 -153 107 ZM621 228 l0 59 l59 0 l0 -59 l-59 0 ZM1003 353 l-491 432 l-491 -432 l76 -64 l58 50 l0 -356 l357 0 q-10 9 -44.5 44 q-34.5 35 -44.5 45 l-179 0 l0 357 l268 223 q28 -24 74 -62.5 q46 -38.5 142 -120 q96 -81.5 157 -132.5 q61 -51 54 -45 l64 61 Z" /><glyph glyph-name="S" unicode="s" d="M927 750 l-830 0 l0 -693 l277 -207 l553 0 l0 900 ZM858 -81 l-346 0 q-82 0 -77 138 l284 0 q29 0 49.5 21 q20.5 21 20.5 49 q0 28 -20.5 48.5 q-20.5 20.5 -49.5 20.5 l-414 0 q-29 0 -49.5 -20.5 q-20.5 -20.5 -20.5 -48.5 q0 -28 19 -48 q-86 -6 -88 48 l0 554 l692 0 l0 -762 ZM305 265 l414 0 q29 0 49.5 20.5 q20.5 20.5 20.5 49 q0 28.5 -20.5 49 q-20.5 20.5 -49.5 20.5 l-414 0 q-29 0 -49.5 -20.5 q-20.5 -20.5 -20.5 -49 q0 -28.5 20.5 -49 q20.5 -20.5 49.5 -20.5 ZM305 473 l414 0 q29 0 49.5 20.5 q20.5 20.5 20.5 49.5 q0 29 -20.5 49 q-20.5 20 -49.5 20 l-414 0 q-29 0 -49.5 -21 q-20.5 -21 -20.5 -49 q0 -28 20.5 -48.5 q20.5 -20.5 49.5 -20.5 Z" /><glyph glyph-name="T" unicode="t" d="M941 291 l64 62 l-493 434 l-493 -434 l76 -65 l59 51 l0 -358 l358 0 q0 0 -44 45 q-35 34 -46 44 l-179 0 l0 359 l269 224 q153 -129 276 -233 q-28 9 -52 9 l-269 0 q-74 0 -126.5 -52.5 q-52.5 -52.5 -52.5 -126.5 q0 -49 16 -85 q16 -36 43.5 -56 q27.5 -20 60.5 -29.5 q33 -9.5 72 -9.5 l167 0 q0 -3 0.5 -8 q0.5 -5 8 -18.5 q7.5 -13.5 20 -24.5 q12.5 -11 40 -22.5 q27.5 -11.5 65.5 -15.5 q-6 7 -15 19 q-9 12 -21.5 36 q-12.5 24 -8.5 34 l-4 0 q75 0 129.5 53 q54.5 53 54.5 127 q0 40 -20 79 l45 -38 ZM683 115 l-154 0 q-57 0 -104 40 q-47 40 -47 95 q0 55 39 94.5 q39 39.5 95 39.5 l179 0 q56 0 95.5 -39.5 q39.5 -39.5 39.5 -94.5 q0 -55 -43.5 -95 q-43.5 -40 -99.5 -40 ZM714 223 l-224 0 q-10 0 -16.5 -6.5 q-6.5 -6.5 -6.5 -16 q0 -9.5 6.5 -16 q6.5 -6.5 16.5 -6.5 l224 0 q9 0 15.5 6.5 q6.5 6.5 6.5 16 q0 9.5 -6.5 16 q-6.5 6.5 -15.5 6.5 ZM714 313 l-224 0 q-10 0 -16.5 -6.5 q-6.5 -6.5 -6.5 -16 q0 -9.5 6.5 -16 q6.5 -6.5 16.5 -6.5 l224 0 q9 0 15.5 6.5 q6.5 6.5 6.5 16 q0 9.5 -6.5 16 q-6.5 6.5 -15.5 6.5 Z" /><glyph glyph-name="F" unicode="f" d="M866 68 q0 -36 -26 -62 q-26 -26 -63 -26 l-354 0 l-110 0 l-1 0 l-155 0 l0 487 l155 0 l5 0 q3 0 3 -1 q64 183 83 225 q18 43 37 60.5 q19 17.5 49 24.5 q17 3 42 -7 q25 -10 50.5 -34.5 q25.5 -24.5 36 -64 q10.5 -39.5 -2.5 -96.5 q-2 -9 -7.5 -31.5 q-5.5 -22.5 -7.5 -30.5 l244 0 q35 0 50.5 -24.5 q15.5 -24.5 15.5 -64.5 l-44 -355 ZM290 423 l-88 0 l-1 0 l0 -399 l0 0 l89 0 l22 0 l0 395 l1 3 q-2 1 -23 1 ZM822 467 l-277 0 l33 133 q12 52 -16 90.5 q-28 38.5 -50 40.5 q-15 2 -35 -8 q-20 -10 -32 -36 q-12 -28 -89 -239 l0 -2 l0 -1 l0 -421 l89 0 l0 0 l332 0 q19 0 32 13 q13 13 13 31 l44 355 q0 18 -13 31 q-13 13 -31 13 Z" /><glyph glyph-name="G" unicode="g" d="M868 70 q0 -37 -26 -63 q-26 -26 -63 -26 l-354 0 l-1 0 l-110 0 l-155 0 l0 488 l155 0 q1 0 4 -0.5 q3 -0.5 4 -0.5 q64 183 83 225 q18 42 37 60 q19 18 49 25 q17 3 42 -7 q25 -10 50.5 -34.5 q25.5 -24.5 36 -64 q10.5 -39.5 -2.5 -96.5 q-1 -4 -15 -63 l244 0 q35 0 51 -24 q16 -24 16 -64 l-45 -355 Z" /><glyph glyph-name="U" unicode="u" d="M696.5 794.5 q-84.5 49.5 -184.5 49.5 q-100 0 -184.5 -49.5 q-84.5 -49.5 -134 -134.5 q-49.5 -85 -49.5 -185 q0 -102 51.5 -187.5 q51.5 -85.5 138.5 -133.5 q-3 -5 -3 -11 l0 -77 q2 -19 59 -19 l245 0 q56 0 58 20 l0 76 q0 6 -3 11 q87 48 138.5 133.5 q51.5 85.5 51.5 187.5 q0 100 -49.5 185 q-49.5 85 -134 134.5 ZM621 210 l-25 -75 q0 -12 -24.5 -20 q-24.5 -8 -59.5 -8 q-35 0 -59.5 8 q-24.5 8 -24.5 20 l-25 75 q-78 32 -126.5 103.5 q-48.5 71.5 -48.5 158.5 q0 118 83.5 201.5 q83.5 83.5 201 83.5 q117.5 0 200.5 -83.5 q83 -83.5 83 -201.5 q0 -87 -48.5 -158.5 q-48.5 -71.5 -126.5 -103.5 ZM524 688 q-92 0 -156.5 -60.5 q-64.5 -60.5 -64.5 -146.5 q0 -10 7.5 -17 q7.5 -7 18 -7 q10.5 0 18 7 q7.5 7 7.5 17 q0 66 50 112 q50 47 120 47 q11 0 18 7 q7 7 7 17 q0 10 -7 17 q-7 7 -18 7 ZM666 -14 l-307 0 q-13 0 -22 -9 q-9 -9 -9 -22 q0 -13 9 -22 q9 -9 22 -9 l307 0 q12 0 21 9 q9 9 9 22 q0 13 -9 22 q-9 9 -21 9 Z" /><glyph glyph-name="V" unicode="v" d="M724.5 824 q-90.5 39 -190 39 q-99.5 0 -190 -39 q-90.5 -39 -156 -104.5 q-65.5 -65.5 -104.5 -156 q-39 -90.5 -39 -190 q0 -99.5 39 -190.5 q39 -91 104.5 -156.5 q65.5 -65.5 156 -104 q90.5 -38.5 190 -38.5 q99.5 0 190 38.5 q90.5 38.5 156 104 q65.5 65.5 104.5 156.5 q39 91 39 190.5 q0 99.5 -38.5 190 q-38.5 90.5 -104.5 156 q-66 65.5 -156.5 104.5 ZM838 686 q100 -96 125 -232 l-5 2 q0 0 -1 -2 q-1 -1 -3 -4 l-3 -7 q-2 -4 -5 -9.5 q-3 -5.5 -6.5 -11.5 q-3.5 -6 -8 -13 q-4.5 -7 -9.5 -15 l-11 -16 q-6 -9 -13 -18 q-11 6 -23 7 q-36 45 -79 81 q-73 62 -164 99 q-1 17 -11 31 q80 102 172 146 q24 -17 45 -38 ZM826 279 q-29 -29 -61 -52 q-146 -110 -330 -118 q-6 21 -24 32 q21 68 44 129 q47 125 106 221 q7 -2 15 -2 q29 0 46 24 q83 -34 150 -90 q36 -30 66 -67 q-22 -16 -22 -44 q0 -19 10 -33 ZM377 150 q-89 167 -101 357 q18 4 30 18.5 q12 14.5 12 33.5 q109 5 203 -16 q0 -18 11 -32 q-61 -100 -110 -229 q-24 -63 -45 -132 ZM290 733 q105 72 233 75.5 q128 3.5 237 -62.5 q-91 -49 -168 -148 q-9 2 -16 2 q-28 0 -45 -23 q0 1 -1 1 l-2 0 q-78 17 -168 17 q-27 0 -52 -1 q-12 17 -32 21 q3 59 14 118 ZM223 676 q13 14 26 25 q-6 -46 -8 -89 q-20 -8 -29 -28 q-33 -4 -63 -10 q29 56 74 102 ZM165 146 q-54 88 -63 191 q-9 103 29 197 q41 9 78 14 q6 -27 32 -38 q3 -56 12 -109 q25 -139 92 -265 q-11 -10 -16 -24 q-80 9 -164 34 ZM335 -13 q-56 29 -102 74 q-19 19 -37 40 q69 -17 132 -23 q6 -19 21 -30 q-6 -28 -14 -61 ZM367 -28 q9 38 16 66 q10 1 19 4 q37 -54 80 -100 q-60 7 -115 30 ZM848 71 q-63 -65 -145 -99 q-82 -34 -169 -33 q-57 55 -105 126 q2 4 4 9 q37 2 74 7 q153 24 279 117 q35 27 69 60 q9 -2 16 -2 q17 0 30 8 q26 -47 31 -68 l1 0 q-32 -70 -85 -125 ZM924 295 q3 8 3 17 q0 12 -5 22 q26 34 47 70 q6 -82 -18 -160 q-12 26 -27 51 Z" /><glyph glyph-name="Z" unicode="z" d="M908 549 q14 -17 14 -39 q0 -22 -14 -38 l-423 -495 q-15 -16 -39 -18 q-24 -2 -39 13 l-67 80 l-183 216 q-14 17 -14 39 q0 21 14 39 l65 77 q13 16 32 16 q18 0 33 -16 l158 -186 l333 389 q14 16 33 16 q18 0 32 -16 l65 -77 Z" /><glyph glyph-name="g" unicode="g" d="M128 -116 l186 0 l0 516 l-186 -131 l0 -385 ZM698 456 l0 -572 l194 0 l0 385 l-194 187 ZM381 716 l253 -127 l0 -705 l-253 0 l0 832 ZM128 -116 l186 0 l0 516 l-186 -131 l0 -385 ZM698 456 l0 -572 l194 0 l0 385 l-194 187 ZM381 716 l253 -127 l0 -705 l-253 0 l0 832 Z" /><glyph glyph-name="numbersign" unicode="#" d="M371 196 q5 3 13.5 13 q8.5 10 14.5 32.5 q6 22.5 -7 53.5 l1 0 q-52 44 -86.5 107 q-34.5 63 -34.5 127 q0 65 34 113 q34 48 88 70.5 q54 22.5 117.5 22.5 q63.5 0 116.5 -22.5 q53 -22.5 85.5 -70.5 q32.5 -48 32.5 -113 q0 -64 -32.5 -127.5 q-32.5 -63.5 -83.5 -107.5 q-13 -27 -5.5 -49.5 q7.5 -22.5 18 -34 q10.5 -11.5 17.5 -14.5 q72 -21 134 -48 q62 -27 107.5 -64 q45.5 -37 45.5 -71 l0 -26 q0 -35 -38 -60 q-38 -25 -103 -37.5 q-65 -12.5 -137 -18.5 q-72 -6 -158 -6 q-86 0 -157.5 6 q-71.5 6 -136.5 18.5 q-65 12.5 -102.5 37.5 q-37.5 25 -37.5 60 l0 26 q0 34 46 71.5 q46 37.5 110 65 q64 27.5 138 46.5 Z" /><glyph glyph-name="asterisk" unicode="*" d="M74 168 l339 0 l0 -138 l-339 0 l0 138 ZM344 368 l338 0 l0 -137 l-338 0 l0 137 ZM611 570 l339 0 l0 -138 l-339 0 l0 138 ZM344 368 l69 0 l0 -338 l-69 0 l0 338 ZM611 568 l71 0 l0 -337 l-71 0 l0 337 Z" /><glyph glyph-name="at" unicode="@" d="M179 701 l269 0 l0 -135 l-269 0 l0 135 ZM579 701 l266 0 l0 -135 l-266 0 l0 135 ZM179 501 l269 0 l0 -334 l-269 0 l0 334 ZM179 100 l269 0 l0 -201 l-269 0 l0 201 ZM579 501 l266 0 l0 -334 l-266 0 l0 334 ZM579 100 l266 0 l0 -201 l-266 0 l0 201 Z" /><glyph glyph-name="exclam" unicode="!" d="M552 65 l15 747 l-162 0 l23 -747 l124 0 ZM552 -42 q-31 30 -62 30 q-35 0 -69 -23 q-31 -30 -31 -68.5 q0 -38.5 23 -62.5 q31 -30 69 -30 q41 0 62 30 q23 24 23 62 q11 18 6.5 34 q-4.5 16 -21.5 28 Z" /><glyph glyph-name="asciitilde" unicode="~" d="M624 358 q8 -25 8 -54 l0 -21 l-254 0 q-1 8 -1 17 q0 28 9 53 q9 26 26 46 q17 19 41 31 q24 12 54 12 q29 0 52 -11 q23 -10 40 -29 q16 -18 25 -44 ZM452 372 q-10 -10 -15 -24 q-5 -11 -6 -22 l148 0 q-1 12 -5 23 q-5 14 -15 24 q-10 10 -23 16 q-15 6 -32 6 q-16 0 -29 -6 q-13 -7 -23 -17 ZM936 318 q4 -37 -5 -73 q-27 -96 -132 -97 q-63 1 -99.5 37.5 q-36.5 36.5 -38.5 101.5 q-3 46 17 87 q21 38 59 55 q38 18 84 11 q102 -18 115 -122 ZM879 255 q10 39 0 78 q-18 62 -78 64 q-61 0 -81 -62 q-5 -21 -4 -43 q0 -22 2 -32 q16 -64 75 -68 q68 -2 86 63 ZM1172 275 q13 -15 15 -38 q1 -24 -9 -41 q-10 -17 -26 -27 q-15 -10 -36 -15 q-20 -5 -43 -5 q-21 0 -41 6 q-19 5 -34 17 q-15 12 -24 30 q-10 18 -10 42 l0 5 l52 0 l0 -5 q1 -27 16 -38 q17 -11 41 -11 q11 0 22 2 q12 2 21 6 q8 4 14 12 q5 7 5 17 q0 13 -10 21 q-11 9 -28 16 q-18 7 -39 14 q-21 7 -40 17 q-18 10 -30 25 q-13 16 -14 41 q-1 19 8 34 q8 14 23 23 q14 10 32 14 q17 5 36 5 q22 0 40 -5 q19 -4 33 -14 q15 -10 23 -25 q8 -16 10 -36 l0 -6 l-6 0 q-5 0 -11 1 l-10 0 l-24 0 l-1 5 q-2 19 -16 25 q-16 8 -38 8 q-24 0 -36 -9 q-12 -8 -12 -21 q0 -11 10 -19 q11 -9 28 -16 q18 -7 39 -14 q21 -7 40 -17 q18 -9 30 -24 ZM580 256 l2 7 l52 0 q-2 -13 -5 -24 q-9 -27 -25 -47 q-17 -20 -42 -32 q-24 -11 -55 -11 q-31 0 -55 11 q-24 12 -41 32 q-16 20 -25 47 q-3 11 -5 24 l52 0 l2 -7 q5 -19 15 -32 q10 -13 25 -21 q14 -8 32 -8 q18 0 32 8 q15 8 25 21 q10 13 16 32 ZM135 442 l0 -52 l-24 -1 l-1 0 q-32 -3 -35 -35 l0 -205 l-52 0 l0 205 q0 19 8 35 q14 31 44 45 q16 7 35 8 l25 0 ZM239 442 l0 -52 l24 -1 l1 0 q32 -3 35 -35 l0 -205 l52 0 l0 205 q0 19 -8 35 q-14 31 -44 45 q-16 7 -35 8 l-25 0 ZM162 149 l52 0 l0 293 l-52 0 l0 -293 Z" /><glyph glyph-name="question" unicode="?" d="M920 351 q29 -26 -1 -53 q-14 -11 -26 -23 q-16 -19 -27 -22 q-11 -3 -30 18 q-49 48 -130 128 q-83 81 -138 136 q-25 27 -40 27 q-15 0 -39 -26 q-58 -58 -139 -141 q-81 -82 -128 -127 q-21 -32 -46 -4 q-20 19 -39 40 q-24 24 0 47 q57 56 167 157 q110 101 180 170 q28 30 44 30 q16 0 44 -30 q71 -71 179 -172 q108 -102 169 -155 ZM573 442 q66 -67 149 -148 q83 -80 92 -88 l-1 -203 l0 -27 q-2 -22 -25 -24 l-123 0 q-22 2 -24 24 l0 38 l0 153 q-2 23 -26 26 l-171 0 q-24 -3 -27 -26 l0 -153 l0 -38 q-2 -22 -24 -24 l-123 0 q-22 2 -25 24 l0 39 l0 191 q8 8 91.5 89 q83.5 81 150.5 148 q43 51 86 -1 Z" /><glyph glyph-name="`" unicode="`" d="M872 -7 q30 -2 33 -32 l0 -16 q-3 -29 -33 -33 l-672 0 l-80 0 l0 271 l472 466 q42 39 94 39 q53 0 93 -39 l62 -63 q38 -41 38 -94 q0 -53 -38 -94 l-383 -405 l414 0 ZM624 555 q-28 -29 -32 -31 l125 -126 q2 4 31 31 l31 32 q25 30 0 63 l-62 62 q-31 25 -62 0 l-31 -31 ZM562 491 l-267 -263 l131 -133 l260 271 l-124 125 ZM380 -7 l-181 190 l0 -190 l181 0 Z" /></font>
</defs>
</svg>
